<svg width="30" height="30" viewBox="0 0 30 30" fill="none" xmlns="http://www.w3.org/2000/svg">
<rect width="30" height="30" rx="15" fill="#F7E7FF"/>
<path d="M15.3805 8.40036L19.8054 9.885C20.3007 10.0504 20.6357 10.5054 20.6383 11.0153L20.6665 15.4424C20.6753 16.7845 20.186 18.0861 19.29 19.1059C18.8779 19.574 18.3497 19.9761 17.6752 20.3356L15.2966 21.6071C15.2221 21.6464 15.1402 21.6666 15.0577 21.6673C14.9751 21.6679 14.8926 21.6483 14.8187 21.6098L12.418 20.3677C11.7361 20.014 11.2032 19.6178 10.7871 19.1563C9.87631 18.1469 9.37026 16.8512 9.36153 15.5071L9.33333 11.0833C9.33066 10.5727 9.65953 10.1145 10.1522 9.94252L14.5603 8.40494C14.8221 8.31211 15.114 8.31014 15.3805 8.40036ZM17.4965 13.1464C17.2985 12.9562 16.9797 12.9575 16.7844 13.1503L14.5387 15.3639L13.6192 14.48C13.4212 14.2898 13.1031 14.2918 12.9071 14.4846C12.7118 14.6775 12.7138 14.9873 12.9118 15.1776L14.189 16.4066C14.2884 16.502 14.4172 16.5491 14.5461 16.5478C14.675 16.5472 14.8032 16.4988 14.9011 16.402L17.5005 13.8394C17.6958 13.6465 17.6938 13.3367 17.4965 13.1464Z" fill="#BD41FF"/>
</svg>