<svg width="30" height="30" viewBox="0 0 30 30" fill="none" xmlns="http://www.w3.org/2000/svg">
<rect width="30" height="30" rx="15" fill="#E9E7FF"/>
<path d="M17.8898 8.33203C20.1485 8.33203 21.6665 9.91736 21.6665 12.2767V17.7214C21.6665 20.0807 20.1485 21.6654 17.8891 21.6654H12.1105C9.85113 21.6654 8.33313 20.0807 8.33313 17.7214V12.2767C8.33313 9.91736 9.85113 8.33203 12.1105 8.33203H17.8898ZM12.8938 13.2647C11.9378 13.2647 11.1598 14.0427 11.1598 14.9987C11.1598 15.9554 11.9378 16.7334 12.8938 16.7334C13.6751 16.7334 14.3298 16.2107 14.5458 15.4987H15.9538V16.2334C15.9538 16.5094 16.1778 16.7334 16.4538 16.7334C16.7298 16.7334 16.9538 16.5094 16.9538 16.2334V15.4987H17.8405V16.2334C17.8405 16.5094 18.0645 16.7334 18.3405 16.7334C18.6165 16.7334 18.8405 16.5094 18.8405 16.2334V14.9987C18.8405 14.7227 18.6165 14.4987 18.3405 14.4987H14.5458C14.3298 13.7874 13.6751 13.2647 12.8938 13.2647ZM12.8939 14.2646C13.2985 14.2646 13.6285 14.594 13.6285 14.9993C13.6285 15.404 13.2985 15.7333 12.8939 15.7333C12.4892 15.7333 12.1592 15.404 12.1592 14.9993C12.1592 14.594 12.4892 14.2646 12.8939 14.2646Z" fill="#6F45F0"/>
</svg>
