<svg width="134" height="134" viewBox="0 0 134 134" fill="none" xmlns="http://www.w3.org/2000/svg">
<path d="M61.8545 8.57894C64.1848 4.69379 69.8152 4.69379 72.1455 8.57895L78.4332 19.0623C79.9735 21.6305 83.1717 22.6697 85.9274 21.4974L97.1763 16.7119C101.345 14.9385 105.9 18.248 105.502 22.7608L104.427 34.9379C104.163 37.921 106.14 40.6415 109.058 41.3129L120.972 44.0533C125.387 45.0689 127.127 50.4238 124.152 53.8405L116.124 63.06C114.158 65.3186 114.158 68.6814 116.124 70.94L124.152 80.1595C127.127 83.5762 125.387 88.9311 120.972 89.9467L109.058 92.6871C106.14 93.3585 104.163 96.079 104.427 99.0621L105.502 111.239C105.9 115.752 101.345 119.062 97.1763 117.288L85.9274 112.503C83.1717 111.33 79.9735 112.369 78.4332 114.938L72.1455 125.421C69.8152 129.306 64.1848 129.306 61.8545 125.421L55.5668 114.938C54.0265 112.369 50.8283 111.33 48.0726 112.503L36.8237 117.288C32.6549 119.062 28.0998 115.752 28.4982 111.239L29.5733 99.0621C29.8367 96.079 27.8601 93.3585 24.9416 92.6871L13.0283 89.9467C8.61322 88.9311 6.87332 83.5762 9.84824 80.1595L17.8755 70.94C19.842 68.6814 19.842 65.3186 17.8755 63.06L9.84824 53.8405C6.87332 50.4238 8.61323 45.0689 13.0283 44.0533L24.9416 41.3129C27.8601 40.6415 29.8367 37.921 29.5733 34.9379L28.4982 22.7608C28.0998 18.248 32.6549 14.9385 36.8237 16.7119L48.0726 21.4974C50.8283 22.6697 54.0265 21.6305 55.5668 19.0623L61.8545 8.57894Z" fill="#F2F1FF"/>
<path d="M85 53.5L60.25 78.25L49 67" stroke="#6F45F0" stroke-width="7" stroke-linecap="round" stroke-linejoin="round"/>
</svg>
