<svg width="22" height="22" viewBox="0 0 16 16" fill="none" xmlns="http://www.w3.org/2000/svg">
<path d="M12.626 5.79874C12.759 5.79874 12.8796 5.85674 12.9749 5.95474C13.0637 6.0594 13.1084 6.1894 13.0955 6.32673C13.0955 6.37207 12.7402 10.8654 12.5372 12.7567C12.4101 13.9173 11.6619 14.622 10.5396 14.6413C9.67662 14.6607 8.83309 14.6673 8.00253 14.6673C7.12075 14.6673 6.25842 14.6607 5.42137 14.6413C4.33665 14.6153 3.58779 13.898 3.46719 12.7567C3.25842 10.8587 2.9096 6.37207 2.90311 6.32673C2.89663 6.1894 2.94072 6.0594 3.03019 5.95474C3.11837 5.85674 3.24545 5.79874 3.37901 5.79874H12.626ZM9.37649 1.33398C9.96585 1.33398 10.4923 1.74531 10.6447 2.33197L10.7536 2.81864C10.8418 3.2153 11.1854 3.49596 11.5809 3.49596H13.5247C13.7841 3.49596 14 3.71129 14 3.98529V4.23862C14 4.50595 13.7841 4.72795 13.5247 4.72795H2.4759C2.21591 4.72795 2 4.50595 2 4.23862V3.98529C2 3.71129 2.21591 3.49596 2.4759 3.49596H4.41971C4.81457 3.49596 5.1582 3.2153 5.24703 2.8193L5.34882 2.36464C5.50702 1.74531 6.02766 1.33398 6.62351 1.33398H9.37649Z" fill="#FF5470"/>
</svg>