<svg width="30" height="30" viewBox="0 0 30 30" fill="none" xmlns="http://www.w3.org/2000/svg">
<rect width="30" height="30" rx="15" fill="#E1F5FF"/>
<path d="M12.5199 8.66807C12.9399 8.68084 13.3465 8.75418 13.7405 8.88818H13.7799C13.8065 8.90084 13.8265 8.91484 13.8399 8.92751C13.9872 8.97484 14.1265 9.02818 14.2599 9.10151L14.5132 9.21485C14.6132 9.26818 14.7332 9.36751 14.7999 9.40818C14.8665 9.44751 14.9399 9.48818 14.9999 9.53418C15.7405 8.96818 16.6399 8.66151 17.5665 8.66807C17.9872 8.66807 18.4072 8.72751 18.8065 8.86151C21.2672 9.66151 22.1539 12.3615 21.4132 14.7215C20.9932 15.9275 20.3065 17.0282 19.4072 17.9275C18.1199 19.1742 16.7072 20.2808 15.1865 21.2342L15.0199 21.3348L14.8465 21.2275C13.3205 20.2808 11.8999 19.1742 10.6005 17.9208C9.7072 17.0215 9.01987 15.9275 8.5932 14.7215C7.83987 12.3615 8.72654 9.66151 11.2139 8.84751C11.4072 8.78084 11.6065 8.73418 11.8065 8.70818H11.8865C12.0739 8.68084 12.2599 8.66807 12.4465 8.66807H12.5199ZM18.4599 10.7748C18.1865 10.6808 17.8865 10.8282 17.7865 11.1082C17.6932 11.3882 17.8399 11.6948 18.1199 11.7942C18.5472 11.9542 18.8332 12.3748 18.8332 12.8408V12.8615C18.8205 13.0142 18.8665 13.1615 18.9599 13.2748C19.0532 13.3882 19.1932 13.4542 19.3399 13.4682C19.6132 13.4608 19.8465 13.2415 19.8665 12.9608V12.8815C19.8865 11.9475 19.3205 11.1015 18.4599 10.7748Z" fill="#2BB8FF"/>
</svg>
