<svg width="30" height="34" viewBox="0 0 30 34" fill="none" xmlns="http://www.w3.org/2000/svg">
<path d="M21.985 0.333008C27.1333 0.333008 30 3.29967 30 8.38301V25.5997C30 30.7663 27.1333 33.6663 21.985 33.6663H8.01667C2.95 33.6663 0 30.7663 0 25.5997V8.38301C0 3.29967 2.95 0.333008 8.01667 0.333008H21.985ZM8.46667 23.233C7.96667 23.183 7.48333 23.4163 7.21667 23.8497C6.95 24.2663 6.95 24.8163 7.21667 25.2497C7.48333 25.6663 7.96667 25.9163 8.46667 25.8497H21.5333C22.1983 25.783 22.7 25.2147 22.7 24.5497C22.7 23.8663 22.1983 23.2997 21.5333 23.233H8.46667ZM21.5333 15.6313H8.46667C7.74833 15.6313 7.16667 16.2163 7.16667 16.933C7.16667 17.6497 7.74833 18.233 8.46667 18.233H21.5333C22.25 18.233 22.8333 17.6497 22.8333 16.933C22.8333 16.2163 22.25 15.6313 21.5333 15.6313ZM13.4483 8.08301H8.46667V8.09967C7.74833 8.09967 7.16667 8.68301 7.16667 9.39967C7.16667 10.1163 7.74833 10.6997 8.46667 10.6997H13.4483C14.1667 10.6997 14.75 10.1163 14.75 9.38134C14.75 8.66634 14.1667 8.08301 13.4483 8.08301Z" fill="#6F45F0"/>
</svg>