<svg width="40" height="40" viewBox="0 0 40 40" fill="none" xmlns="http://www.w3.org/2000/svg">
<g clip-path="url(#clip0_499_10922)">
<path d="M29.0885 39.9996C28.8085 39.9996 28.5219 39.9646 28.2385 39.8896L2.46686 32.9879C0.700188 32.5012 -0.353145 30.6713 0.110188 28.9046L3.36186 16.7846C3.48186 16.3396 3.93852 16.0813 4.38186 16.1946C4.82686 16.3129 5.09019 16.7713 4.97186 17.2146L1.72186 29.3313C1.49019 30.2146 2.02019 31.1346 2.90519 31.3796L28.6669 38.2779C29.5519 38.5112 30.4652 37.9846 30.6952 37.1046L31.9969 32.2812C32.1169 31.8362 32.5735 31.5713 33.0185 31.6929C33.4635 31.8129 33.7252 32.2712 33.6069 32.7146L32.3069 37.5312C31.9152 39.0146 30.5652 39.9996 29.0885 39.9996Z" fill="#6F45F0"/>
<path d="M36.667 29.9997H10.0003C8.16199 29.9997 6.66699 28.5047 6.66699 26.6663V6.66634C6.66699 4.82801 8.16199 3.33301 10.0003 3.33301H36.667C38.5053 3.33301 40.0003 4.82801 40.0003 6.66634V26.6663C40.0003 28.5047 38.5053 29.9997 36.667 29.9997ZM10.0003 4.99967C9.08199 4.99967 8.33366 5.74801 8.33366 6.66634V26.6663C8.33366 27.5847 9.08199 28.333 10.0003 28.333H36.667C37.5853 28.333 38.3337 27.5847 38.3337 26.6663V6.66634C38.3337 5.74801 37.5853 4.99967 36.667 4.99967H10.0003Z" fill="#6F45F0"/>
<path d="M15.0003 14.9997C13.162 14.9997 11.667 13.5047 11.667 11.6663C11.667 9.82801 13.162 8.33301 15.0003 8.33301C16.8387 8.33301 18.3336 9.82801 18.3336 11.6663C18.3336 13.5047 16.8387 14.9997 15.0003 14.9997ZM15.0003 9.99967C14.082 9.99967 13.3337 10.748 13.3337 11.6663C13.3337 12.5847 14.082 13.333 15.0003 13.333C15.9187 13.333 16.667 12.5847 16.667 11.6663C16.667 10.748 15.9187 9.99967 15.0003 9.99967Z" fill="#6F45F0"/>
<path d="M7.61646 28.2163C7.40313 28.2163 7.1898 28.1347 7.02646 27.973C6.70146 27.648 6.70146 27.1197 7.02646 26.7947L14.8981 18.923C15.8415 17.9797 17.4898 17.9797 18.4331 18.923L20.7764 21.2663L27.2631 13.483C27.7348 12.918 28.4281 12.5897 29.1664 12.583H29.1848C29.9148 12.583 30.6064 12.8997 31.0831 13.4547L39.7998 23.6247C40.0998 23.973 40.0598 24.4997 39.7098 24.7997C39.3614 25.0997 38.8364 25.0613 38.5348 24.7097L29.8181 14.5397C29.6564 14.353 29.4331 14.2497 29.1848 14.2497C29.0114 14.2347 28.7064 14.3547 28.5448 14.5497L21.4731 23.0347C21.3231 23.2147 21.1048 23.323 20.8698 23.333C20.6331 23.3497 20.4081 23.2563 20.2431 23.0897L17.2548 20.1013C16.9398 19.788 16.3915 19.788 16.0765 20.1013L8.2048 27.973C8.04313 28.1347 7.8298 28.2163 7.61646 28.2163Z" fill="#6F45F0"/>
<path d="M15.9999 19L7.99988 27C7.59988 27.4 8.16655 28.5 8.49988 29H35.4999C39.8999 29 39.3332 25.3333 38.4999 23.5L28.9999 13.5C27.3332 15.5 23.2999 20.1 20.4999 22.5C19.2999 20.1 16.9999 19.1667 15.9999 19Z" fill="#6F45F0"/>
</g>
<defs>
<clipPath id="clip0_499_10922">
<rect width="40" height="40" fill="white"/>
</clipPath>
</defs>
</svg>