<svg width="30" height="30" viewBox="0 0 30 30" fill="none" xmlns="http://www.w3.org/2000/svg">
<rect width="30" height="30" rx="15" fill="#FFF3DA"/>
<path d="M13.6421 19.8193C13.9754 19.7488 16.0062 19.7488 16.3394 19.8193C16.6243 19.8851 16.9324 20.0388 16.9324 20.3745C16.9159 20.6941 16.7284 20.9775 16.4693 21.1574C16.1334 21.4193 15.7391 21.5851 15.327 21.6449C15.0991 21.6744 14.8752 21.6751 14.6552 21.6449C14.2424 21.5851 13.8482 21.4193 13.5129 21.1568C13.2532 20.9775 13.0657 20.6941 13.0491 20.3745C13.0491 20.0388 13.3572 19.8851 13.6421 19.8193ZM15.0301 8.33398C16.4169 8.33398 17.8335 8.992 18.6749 10.0838C19.2209 10.7868 19.4714 11.4891 19.4714 12.5809V12.8649C19.4714 13.7022 19.6927 14.1957 20.1797 14.7644C20.5487 15.1834 20.6666 15.7212 20.6666 16.3047C20.6666 16.8875 20.4752 17.4407 20.0915 17.8899C19.5893 18.4284 18.881 18.7722 18.1581 18.832C17.1106 18.9213 16.0624 18.9965 15.0003 18.9965C13.9375 18.9965 12.89 18.9515 11.8425 18.832C11.119 18.7722 10.4107 18.4284 9.90909 17.8899C9.52546 17.4407 9.33331 16.8875 9.33331 16.3047C9.33331 15.7212 9.45191 15.1834 9.82031 14.7644C10.3225 14.1957 10.5293 13.7022 10.5293 12.8649V12.5809C10.5293 11.4595 10.8089 10.7263 11.3846 10.0086C12.2407 8.96178 13.6129 8.33398 14.9705 8.33398H15.0301Z" fill="#FFB624"/>
</svg>
