<svg width="40" height="40" viewBox="0 0 40 40" fill="none" xmlns="http://www.w3.org/2000/svg">
<circle cx="20" cy="20" r="20" fill="#F2F1FF"/>
<path d="M16.5316 10.9368C18.7165 9.66727 21.402 9.68946 23.5664 10.9949C25.7095 12.3269 27.012 14.7042 26.9999 17.2614C26.95 19.8019 25.5533 22.19 23.8075 24.0361C22.7998 25.1064 21.6726 26.0528 20.4488 26.856C20.3228 26.9289 20.1847 26.9777 20.0415 27C19.9036 26.9941 19.7693 26.9534 19.6508 26.8814C17.7824 25.6746 16.1433 24.134 14.8123 22.334C13.6986 20.8314 13.0658 19.016 13 17.1344L13.005 16.8607C13.0959 14.4046 14.4248 12.1609 16.5316 10.9368ZM20.9073 15.0348C20.0191 14.6572 18.995 14.8623 18.3133 15.5543C17.6316 16.2463 17.4266 17.2887 17.7942 18.1948C18.1617 19.1008 19.0292 19.6918 19.9916 19.6918C20.6221 19.6964 21.2282 19.4438 21.6748 18.9905C22.1214 18.5371 22.3715 17.9206 22.3693 17.2784C22.3726 16.298 21.7955 15.4123 20.9073 15.0348Z" fill="#6F45F0"/>
<path opacity="0.4" d="M20 30C22.7614 30 25 29.5523 25 29C25 28.4477 22.7614 28 20 28C17.2386 28 15 28.4477 15 29C15 29.5523 17.2386 30 20 30Z" fill="#6F45F0"/>
</svg>
