<svg width="10" height="14" viewBox="0 0 10 14" fill="none" xmlns="http://www.w3.org/2000/svg">
<path d="M2.35441 0.624514C3.81099 -0.221817 5.60135 -0.207025 7.04426 0.663263C8.47297 1.55128 9.34131 3.13612 9.33328 4.84096C9.29997 6.53462 8.36886 8.12667 7.20498 9.35739C6.53322 10.0709 5.78174 10.7019 4.9659 11.2374C4.88187 11.2859 4.78983 11.3185 4.69432 11.3333C4.6024 11.3294 4.51288 11.3023 4.43384 11.2543C3.18828 10.4497 2.09556 9.42269 1.20822 8.22264C0.465725 7.22091 0.0438897 6.01067 0 4.75628L0.00332415 4.57379C0.0639481 2.93643 0.949864 1.44062 2.35441 0.624514ZM5.27151 3.35652C4.67938 3.10482 3.9967 3.24157 3.54221 3.7029C3.08773 4.16423 2.95109 4.85915 3.19611 5.46319C3.44112 6.06722 4.01945 6.46123 4.66107 6.46123C5.0814 6.46425 5.48546 6.29588 5.78321 5.99365C6.08095 5.69142 6.24766 5.28043 6.24617 4.85225C6.24841 4.19869 5.86364 3.60821 5.27151 3.35652Z" fill="#1ED390"/>
<path opacity="0.4" d="M4.66683 13.3333C6.50778 13.3333 8.00016 13.0349 8.00016 12.6667C8.00016 12.2985 6.50778 12 4.66683 12C2.82588 12 1.3335 12.2985 1.3335 12.6667C1.3335 13.0349 2.82588 13.3333 4.66683 13.3333Z" fill="#1ED390"/>
</svg>