<svg width="30" height="30" viewBox="0 0 30 30" fill="none" xmlns="http://www.w3.org/2000/svg">
<rect width="30" height="30" rx="15" fill="#E1F5FF"/>
<path d="M14.6618 8.33398C16.3168 8.33398 17.6666 9.66065 17.6666 11.294V14.4873H13.5969C13.3052 14.4873 13.0746 14.714 13.0746 15.0007C13.0746 15.2807 13.3052 15.514 13.5969 15.514H17.6666V18.7007C17.6666 20.334 16.3168 21.6673 14.6482 21.6673H11.3449C9.68312 21.6673 8.33331 20.3407 8.33331 18.7073V11.3007C8.33331 9.66065 9.6899 8.33398 11.3517 8.33398H14.6618ZM19.3601 12.7008C19.5601 12.4941 19.8868 12.4941 20.0868 12.6941L22.0334 14.6341C22.1334 14.7341 22.1868 14.8608 22.1868 15.0008C22.1868 15.1341 22.1334 15.2675 22.0334 15.3608L20.0868 17.3008C19.9868 17.4008 19.8534 17.4541 19.7268 17.4541C19.5934 17.4541 19.4601 17.4008 19.3601 17.3008C19.1601 17.1008 19.1601 16.7741 19.3601 16.5741L20.4268 15.5141L17.6666 15.514V14.4873L20.4268 14.4875L19.3601 13.4275C19.1601 13.2275 19.1601 12.9008 19.3601 12.7008Z" fill="#2AB8FF"/>
</svg>
