<svg width="30" height="30" viewBox="0 0 30 30" fill="none" xmlns="http://www.w3.org/2000/svg">
<rect width="30" height="30" rx="15" fill="#FFEAEA"/>
<path d="M17.794 8.33398C19.8533 8.33398 21 9.52065 21 11.554V18.4406C21 20.5073 19.8533 21.6673 17.794 21.6673H12.2067C10.18 21.6673 9 20.5073 9 18.4406V11.554C9 9.52065 10.18 8.33398 12.2067 8.33398H17.794ZM12.3867 17.494C12.1867 17.474 11.9933 17.5673 11.8867 17.7407C11.78 17.9073 11.78 18.1273 11.8867 18.3007C11.9933 18.4673 12.1867 18.5673 12.3867 18.5407H17.6133C17.8793 18.514 18.08 18.2867 18.08 18.0206C18.08 17.7473 17.8793 17.5206 17.6133 17.494H12.3867ZM17.6133 14.4533H12.3867C12.0993 14.4533 11.8667 14.6873 11.8667 14.974C11.8667 15.2607 12.0993 15.494 12.3867 15.494H17.6133C17.9 15.494 18.1333 15.2607 18.1333 14.974C18.1333 14.6873 17.9 14.4533 17.6133 14.4533ZM14.3793 11.434H12.3867V11.4407C12.0993 11.4407 11.8667 11.674 11.8667 11.9607C11.8667 12.2473 12.0993 12.4807 12.3867 12.4807H14.3793C14.6667 12.4807 14.9 12.2473 14.9 11.9533C14.9 11.6673 14.6667 11.434 14.3793 11.434Z" fill="#FF484D"/>
</svg>
