<svg width="30" height="30" viewBox="0 0 30 30" fill="none" xmlns="http://www.w3.org/2000/svg">
<rect width="30" height="30" rx="15" fill="#F7E7FF"/>
<rect width="16" height="16" transform="translate(7 7)" fill="#F5E2FF"/>
<path d="M18.0104 9C20.3096 9 21.6667 10.3231 21.6667 12.5879H18.8459V12.611C17.5368 12.611 16.4756 13.6457 16.4756 14.922C16.4756 16.1983 17.5368 17.233 18.8459 17.233H21.6667V17.441C21.6667 19.6769 20.3096 21 18.0104 21H11.9896C9.69037 21 8.33333 19.6769 8.33333 17.441V12.559C8.33333 10.3231 9.69037 9 11.9896 9H18.0104ZM21.1689 13.5816C21.4438 13.5816 21.6667 13.7989 21.6667 14.0669V15.754C21.6635 16.0207 21.4425 16.2362 21.1689 16.2393H18.8993C18.2365 16.248 17.657 15.8056 17.5067 15.1762C17.4314 14.7855 17.5371 14.3824 17.7954 14.0748C18.0537 13.7672 18.4382 13.5867 18.8459 13.5816H21.1689ZM19.1659 14.3616H18.9467C18.8121 14.36 18.6824 14.4111 18.5867 14.5034C18.4909 14.5956 18.437 14.7214 18.437 14.8527C18.437 15.128 18.6642 15.3522 18.9467 15.3553H19.1659C19.4474 15.3553 19.6756 15.1329 19.6756 14.8584C19.6756 14.584 19.4474 14.3616 19.1659 14.3616ZM15.2548 11.5941H11.4919C11.2127 11.5941 10.9855 11.8131 10.9822 12.0852C10.9822 12.3606 11.2094 12.5847 11.4919 12.5879H15.2548C15.5363 12.5879 15.7644 12.3654 15.7644 12.091C15.7644 11.8166 15.5363 11.5941 15.2548 11.5941Z" fill="#BD41FF"/>
</svg>
