<svg width="44" height="44" viewBox="0 0 44 44" fill="none" xmlns="http://www.w3.org/2000/svg">
<circle cx="22" cy="22" r="22" fill="white"/>
<path d="M22 0C34.1255 0 44 9.86975 44 22.0127C44 34.1302 34.1255 44 22 44C9.87452 44 0 34.1302 0 22.0127C0 9.86975 9.87452 0 22 0ZM19.4942 13.2658C19.027 13.2658 18.5811 13.3719 18.1564 13.5842C17.6255 13.8813 17.2008 14.3483 16.9672 14.9001C16.899 15.0755 16.8129 15.4117 16.7396 15.7263C16.6281 16.2057 16.5348 16.692 16.4717 17.1801C16.3105 18.4252 16.2239 20.1352 16.2239 21.9894C16.2239 23.2083 16.265 24.3642 16.3356 25.3688C16.4267 26.6659 16.4504 28.1382 17.0521 29.2909C17.5193 30.1823 18.4324 30.7342 19.4093 30.7342H19.4942C20.7477 30.6924 22.2263 29.8277 23.3195 29.213C25.6289 27.9146 28.5704 25.8519 29.9421 24.3666L30.0695 24.2393C30.3031 24.0058 30.6004 23.645 30.6641 23.5601C31.0039 23.1143 31.1737 22.5625 31.1737 22.0127C31.1737 21.3951 30.9826 20.822 30.6216 20.355C30.5367 20.2701 30.2181 19.9093 29.9208 19.6122C28.1795 17.7443 23.6351 14.6879 21.2568 13.754C20.8958 13.6075 19.9826 13.287 19.4942 13.2658Z" fill="#6F45F0"/>
</svg>
