<svg width="30" height="30" viewBox="0 0 30 30" fill="none" xmlns="http://www.w3.org/2000/svg">
<rect width="30" height="30" rx="15" fill="#FFEAEA"/>
<path d="M15 8.33203C18.6867 8.33203 21.6667 11.3194 21.6667 14.9987C21.6667 18.6794 18.6867 21.6654 15 21.6654C11.32 21.6654 8.33337 18.6794 8.33337 14.9987C8.33337 11.3194 11.32 8.33203 15 8.33203ZM15 16.9527C14.68 16.9527 14.42 17.2127 14.42 17.5327C14.42 17.8527 14.68 18.1194 15.0067 18.1194C15.3267 18.1194 15.5867 17.8527 15.5867 17.5327C15.5867 17.2127 15.3267 16.9527 15 16.9527ZM15 11.8854C14.68 11.8854 14.4134 12.1527 14.4134 12.472V15.4187C14.4134 15.7394 14.68 15.9987 15 15.9987C15.32 15.9987 15.58 15.7394 15.58 15.4187V12.472C15.58 12.1527 15.32 11.8854 15 11.8854Z" fill="#FF484C"/>
</svg>
