<svg width="30" height="30" viewBox="0 0 30 30" fill="none" xmlns="http://www.w3.org/2000/svg">
<rect width="30" height="30" rx="15" fill="#F7E7FF"/>
<path d="M18.904 9C20.4267 9 21.666 10.228 21.666 11.7368L21.6667 13.5216C21.6667 13.6524 21.614 13.7793 21.5207 13.8717C21.4267 13.9649 21.3 14.0171 21.1667 14.0171C20.6193 14.0171 20.174 14.4583 20.174 15.0007C20.174 15.543 20.6193 15.9843 21.1667 15.9843C21.4427 15.9843 21.6667 16.2062 21.6667 16.4797V18.2639C21.6667 19.7727 20.428 21 18.9053 21H11.0953C9.57267 21 8.33333 19.7727 8.33333 18.2639V16.4797C8.33333 16.2062 8.55733 15.9843 8.83333 15.9843C9.38133 15.9843 9.82667 15.543 9.82667 15.0007C9.82667 14.4722 9.39933 14.0745 8.83333 14.0745C8.70067 14.0745 8.574 14.0223 8.48 13.9292C8.386 13.8361 8.33333 13.7099 8.33333 13.5791L8.33467 11.7368C8.33467 10.228 9.57333 9 11.096 9H18.904ZM15.0013 12.4356C14.812 12.4356 14.6427 12.54 14.558 12.7078L14.072 13.6835L12.988 13.84C12.8007 13.8665 12.6473 13.9933 12.588 14.1716C12.5293 14.35 12.5767 14.5429 12.7127 14.6737L13.4987 15.432L13.3133 16.5041C13.2813 16.6891 13.3567 16.8727 13.51 16.983C13.5967 17.0445 13.6973 17.0762 13.7993 17.0762C13.8773 17.0762 13.956 17.057 14.028 17.0194L15 16.5134L15.97 17.0181C16.138 17.1072 16.3373 17.0934 16.49 16.9824C16.644 16.8727 16.7193 16.6891 16.6873 16.5041L16.5013 15.432L17.2873 14.6737C17.424 14.5429 17.4713 14.35 17.412 14.1716C17.3533 13.9933 17.2 13.8665 17.0147 13.8407L15.9287 13.6835L15.4427 12.7085C15.3593 12.5407 15.19 12.4363 15.0013 12.4356Z" fill="#BD41FF"/>
</svg>
