<svg width="22" height="22" viewBox="0 0 22 22" fill="none" xmlns="http://www.w3.org/2000/svg">
<path fill-rule="evenodd" clip-rule="evenodd" d="M10.7607 1.83301C15.6832 1.83301 19.6872 5.83701 19.6872 10.7595C19.6872 13.0819 18.7959 15.2001 17.3374 16.7898L20.2073 19.6537C20.4759 19.9222 20.4768 20.3567 20.2082 20.6253C20.0744 20.761 19.8975 20.8279 19.7215 20.8279C19.5464 20.8279 19.3704 20.761 19.2356 20.6272L16.3311 17.7308C14.8032 18.9544 12.866 19.6869 10.7607 19.6869C5.83817 19.6869 1.83325 15.682 1.83325 10.7595C1.83325 5.83701 5.83817 1.83301 10.7607 1.83301ZM10.7607 3.20801C6.59625 3.20801 3.20825 6.59509 3.20825 10.7595C3.20825 14.9239 6.59625 18.3119 10.7607 18.3119C14.9242 18.3119 18.3122 14.9239 18.3122 10.7595C18.3122 6.59509 14.9242 3.20801 10.7607 3.20801Z" fill="#626262"/>
</svg>
